<svg width="100" height="100" viewBox="0 0 100 100" fill="none" xmlns="http://www.w3.org/2000/svg">
<path d="M50 0C59.8891 0 69.5561 2.93245 77.7785 8.42652C86.001 13.9206 92.4096 21.7295 96.194 30.8658C99.9784 40.0021 100.969 50.0555 99.0393 59.7545C97.11 69.4536 92.348 78.3627 85.3553 85.3553C78.3627 92.348 69.4536 97.11 59.7545 99.0393C50.0555 100.969 40.0021 99.9784 30.8658 96.194C21.7295 92.4096 13.9206 86.001 8.42652 77.7785C2.93245 69.5561 0 59.8891 0 50C0 36.7392 5.26784 24.0215 14.6447 14.6447C24.0215 5.26784 36.7392 0 50 0V0ZM86.73 23.78C82.8886 26.3548 78.7899 28.5231 74.5 30.25C76.352 35.8285 77.4189 41.6375 77.67 47.51H95.06C94.5907 38.9699 91.7016 30.7396 86.73 23.78V23.78ZM13.29 23.78C8.32692 30.7448 5.4513 38.9797 5 47.52H22.33C22.5805 41.6442 23.6474 35.8318 25.5 30.25C21.2133 28.523 17.1179 26.3546 13.28 23.78H13.29ZM86.73 76.22C91.7055 69.2624 94.5951 61.0309 95.06 52.49H77.69C77.5001 58.3715 76.4904 64.1976 74.69 69.8C78.9125 71.5222 82.947 73.6735 86.73 76.22V76.22ZM5 52.47C5.46448 61.0172 8.35387 69.2552 13.33 76.22C17.113 73.6735 21.1475 71.5222 25.37 69.8C23.5512 64.1936 22.5246 58.3605 22.32 52.47H5ZM47.56 65.07V52.48H27.28C27 55.27 28.87 66 30 68.13C35.6751 66.3253 41.5689 65.2993 47.52 65.08L47.56 65.07ZM72.8 52.49H52.49V65.08C58.4384 65.309 64.3285 66.3417 70 68.15C71.6416 63.0817 72.5836 57.8131 72.8 52.49V52.49ZM47.53 47.49V34.92C41.6354 34.6992 35.7969 33.6902 30.17 31.92C28.85 34.75 26.89 45.61 27.33 47.54H47.53V47.49ZM69.89 31.89C64.25 33.6626 58.398 34.6716 52.49 34.89V47.52H72.78C72.5303 42.203 71.558 36.9447 69.89 31.89V31.89ZM31.67 72.78C35.1872 81.1883 40.6138 88.6623 47.52 94.61V70C44.45 69.8 34.75 71.49 31.67 72.78ZM52.48 94.63C59.3983 88.6649 64.8319 81.1702 68.35 72.74C63.203 71.135 57.8672 70.2138 52.48 70V94.63ZM31.85 27.28C35.42 28.62 45.12 30.28 47.52 29.97V5.88C40.7342 11.7261 35.3744 19.0458 31.85 27.28V27.28ZM68.18 27.28C64.6499 19.0438 59.2831 11.7239 52.49 5.88V30C57.8143 29.7853 63.0883 28.8811 68.18 27.31V27.28ZM27.23 25.66C28.7712 22.0118 30.6458 18.5136 32.83 15.21C35.0144 11.9317 37.4804 8.85003 40.2 6C30.975 8.04112 22.629 12.9402 16.35 20C19.7756 22.2503 23.421 24.1467 27.23 25.66V25.66ZM59.81 6C65.3138 11.7032 69.7206 18.371 72.81 25.67C76.6225 24.14 80.2683 22.2233 83.69 19.95C77.3917 12.9086 69.037 8.02805 59.81 6V6ZM60.49 93.83C69.4462 91.7333 77.5374 86.9246 83.66 80.06C80.3048 77.8245 76.7335 75.9317 73 74.41C70.0152 81.5713 65.7791 88.1439 60.49 93.82V93.83ZM16.35 80.06C22.4778 86.9233 30.5717 91.7315 39.53 93.83C34.2485 88.1501 30.0224 81.5738 27.05 74.41C23.3051 75.9345 19.7208 77.8271 16.35 80.06V80.06Z" fill="white"/>
</svg>
