<svg width="248" height="56" viewBox="0 0 248 56" fill="none" xmlns="http://www.w3.org/2000/svg">
<line x1="12.5" y1="19" x2="12.5" y2="32" stroke="white"/>
<line x1="234.5" y1="19" x2="234.5" y2="32" stroke="white"/>
<path d="M225.237 12.15C224.596 12.15 224.041 12.0375 223.575 11.8125C223.116 11.5875 222.754 11.2792 222.487 10.8875C222.229 10.4875 222.079 10.0375 222.037 9.5375H223.6C223.675 9.89583 223.858 10.1958 224.15 10.4375C224.441 10.6708 224.804 10.7875 225.237 10.7875C225.704 10.7875 226.083 10.6167 226.375 10.275C226.675 9.93333 226.825 9.50833 226.825 9C226.825 8.475 226.675 8.05833 226.375 7.75C226.083 7.44167 225.712 7.2875 225.262 7.2875C224.887 7.2875 224.562 7.37917 224.287 7.5625C224.012 7.74583 223.816 7.975 223.7 8.25H222.162L222.912 3.25H227.762V4.65H224.112L223.712 6.675C223.896 6.475 224.146 6.3125 224.462 6.1875C224.779 6.05417 225.133 5.9875 225.525 5.9875C226.15 5.9875 226.671 6.12917 227.087 6.4125C227.504 6.6875 227.821 7.05417 228.037 7.5125C228.254 7.9625 228.362 8.45417 228.362 8.9875C228.362 9.59583 228.229 10.1375 227.962 10.6125C227.704 11.0875 227.337 11.4625 226.862 11.7375C226.396 12.0125 225.854 12.15 225.237 12.15ZM233.439 12.15C232.63 12.15 231.939 11.9625 231.364 11.5875C230.789 11.2042 230.343 10.675 230.026 10C229.718 9.31667 229.564 8.525 229.564 7.625C229.564 6.73333 229.718 5.94583 230.026 5.2625C230.343 4.57917 230.789 4.05 231.364 3.675C231.939 3.29167 232.63 3.1 233.439 3.1C234.247 3.1 234.939 3.29167 235.514 3.675C236.089 4.05 236.53 4.57917 236.839 5.2625C237.155 5.94583 237.314 6.73333 237.314 7.625C237.314 8.525 237.155 9.31667 236.839 10C236.53 10.675 236.089 11.2042 235.514 11.5875C234.939 11.9625 234.247 12.15 233.439 12.15ZM233.439 10.7125C234.097 10.7125 234.635 10.4375 235.051 9.8875C235.468 9.3375 235.676 8.58333 235.676 7.625C235.676 6.66667 235.468 5.9125 235.051 5.3625C234.635 4.8125 234.097 4.5375 233.439 4.5375C232.772 4.5375 232.23 4.8125 231.814 5.3625C231.405 5.9125 231.201 6.66667 231.201 7.625C231.201 8.58333 231.405 9.3375 231.814 9.8875C232.23 10.4375 232.772 10.7125 233.439 10.7125ZM242.313 12.15C241.505 12.15 240.813 11.9625 240.238 11.5875C239.663 11.2042 239.217 10.675 238.901 10C238.592 9.31667 238.438 8.525 238.438 7.625C238.438 6.73333 238.592 5.94583 238.901 5.2625C239.217 4.57917 239.663 4.05 240.238 3.675C240.813 3.29167 241.505 3.1 242.313 3.1C243.122 3.1 243.813 3.29167 244.388 3.675C244.963 4.05 245.405 4.57917 245.713 5.2625C246.03 5.94583 246.188 6.73333 246.188 7.625C246.188 8.525 246.03 9.31667 245.713 10C245.405 10.675 244.963 11.2042 244.388 11.5875C243.813 11.9625 243.122 12.15 242.313 12.15ZM242.313 10.7125C242.972 10.7125 243.509 10.4375 243.926 9.8875C244.342 9.3375 244.551 8.58333 244.551 7.625C244.551 6.66667 244.342 5.9125 243.926 5.3625C243.509 4.8125 242.972 4.5375 242.313 4.5375C241.647 4.5375 241.105 4.8125 240.688 5.3625C240.28 5.9125 240.076 6.66667 240.076 7.625C240.076 8.58333 240.28 9.3375 240.688 9.8875C241.105 10.4375 241.647 10.7125 242.313 10.7125Z" fill="white"/>
<rect x="235" y="27" width="29" height="223" transform="rotate(90 235 27)" fill="url(#paint0_linear)"/>
<path d="M11.1455 12V5.075L9.70796 5.4125V4.1875L11.8205 3.25H12.808V12H11.1455Z" fill="white"/>
<defs>
<linearGradient id="paint0_linear" x1="249.5" y1="27" x2="249.5" y2="250" gradientUnits="userSpaceOnUse">
<stop stop-color="#480046"/>
<stop offset="1" stop-color="#A5B6D6"/>
</linearGradient>
</defs>
</svg>
