<svg width="28" height="41" viewBox="0 0 28 41" fill="none" xmlns="http://www.w3.org/2000/svg">
<path d="M26.3778 0.185028C25.8686 -0.0695837 25.2575 -0.0695835 24.7992 0.235951L7.48559 11.6935H1.52767C0.661991 11.6935 0 12.3555 0 13.2212V27.0211C0 27.8868 0.661991 28.5488 1.52767 28.5488H7.48559L24.7992 39.9554C25.0538 40.1082 25.3593 40.21 25.6649 40.21C25.9195 40.21 26.1741 40.1591 26.3778 40.0063C26.887 39.7517 27.1925 39.2425 27.1925 38.6823V1.50901C27.1925 0.948863 26.887 0.43964 26.3778 0.185028ZM3.05534 14.7488H6.41622V25.4934H3.05534V14.7488V14.7488ZM24.1372 35.8307L9.47156 26.1554V14.0359L24.1372 4.36066V35.8307Z" fill="white"/>
</svg>
