<svg width="36" height="41" viewBox="0 0 36 41" fill="none" xmlns="http://www.w3.org/2000/svg">
<path d="M1.52758 28.5009H7.33239L19.7058 39.805C20.0113 40.0596 20.3678 40.2124 20.7242 40.2124C20.9279 40.2124 21.1315 40.1614 21.3352 40.0596C21.8953 39.805 22.2518 39.2449 22.2518 38.6848V1.51363C22.2518 0.902595 21.8953 0.342482 21.3352 0.138804C20.7751 -0.115793 20.1132 -0.0139538 19.7058 0.393401L7.38331 11.6975H1.52758C0.661952 11.6975 0 12.3595 0 13.2251V27.0242C0 27.8389 0.712871 28.5009 1.52758 28.5009ZM19.1966 35.2223L9.47101 26.3114V13.887L19.1966 4.97615V35.2223ZM3.05516 14.7527H6.41584V25.4967H3.05516V14.7527Z" fill="white"/>
<path d="M24.7468 28.1954C25.0523 28.45 25.4088 28.6027 25.7652 28.6027C26.1725 28.6027 26.5799 28.45 26.8854 28.0935C31.3154 23.3071 31.3154 16.0766 26.8345 11.9521C26.2235 11.392 25.256 11.4429 24.6959 12.0539C24.1358 12.665 24.1867 13.6324 24.7977 14.1926C28.0056 17.1459 27.9547 22.4415 24.645 26.0059C24.0849 26.6678 24.0849 27.6353 24.7468 28.1954Z" fill="white"/>
<path d="M32.9449 19.6409C32.9449 24.0709 31.1627 28.3991 28.0566 31.8107C27.4965 32.4217 27.5474 33.3892 28.1585 33.9493C28.464 34.2039 28.8204 34.3566 29.1769 34.3566C29.5842 34.3566 29.9916 34.2039 30.2971 33.8474C33.9633 29.8757 36.0001 24.8347 36.0001 19.59C36.0001 14.3453 34.0142 9.5589 30.2971 6.1473C29.6861 5.58719 28.7186 5.6381 28.1585 6.24914C27.5984 6.86017 27.6493 7.82764 28.2603 8.38775C31.3155 11.2902 32.9958 15.2619 32.9449 19.6409Z" fill="white"/>
</svg>
